<svg xmlns="http://www.w3.org/2000/svg" viewBox="0 0 48 48"><defs><style>.cls-1{fill:#f6ccaf;}.cls-2{fill:#ffdec7;}.cls-3{fill:#edebf2;}.cls-4{fill:#dad7e5;}.cls-5{fill:#ffde76;}.cls-6{fill:#fc6;}</style></defs><title>Angel</title><g id="Angel"><path class="cls-1" d="M29,14a5,5,0,0,1-5,5c-5.34,0-6.81-7.18-2.37-9.4A5,5,0,0,1,29,14Z"/><path class="cls-2" d="M28.4,16.39C24,18.81,19.19,13.82,21.63,9.6A5,5,0,0,1,28.4,16.39Z"/><path class="cls-3" d="M33,44c0,1.66-4,3-9,3s-9-1.34-9-3c0-.11-.15.49,3-11l-4-2c.93-4.64.46-2.29,2-10l5.43-2.71a5,5,0,0,0,5.14,0L32,21c1.53,7.63,1.08,5.38,2,10l-4,2C30,33.16,33,43.89,33,44Z"/><path class="cls-4" d="M33,44.24C32.59,45.79,28.72,47,24,47c-5,0-9-1.34-9-3,0-.12,3-10.87,3-11l-4-2c.93-4.64.46-2.29,2-10l2.89-1.44c-1.49,7.44-1.41,6.9-1.41,7.38a3.76,3.76,0,0,0,2.05,3.33,2,2,0,0,1,1,2.31C17.73,43,18,41.89,18,42,18,44.64,27.27,45.92,33,44.24Z"/><path class="cls-5" d="M47,18a2,2,0,0,1-2,2H42a2,2,0,0,1,0,4H40a2,2,0,0,1,0,4c-4,0-5.09.18-6.73-.66L32,21l-1.71-.85A6,6,0,0,1,36,16h9A2,2,0,0,1,47,18Z"/><path class="cls-6" d="M42,26a2,2,0,0,1-2,2c-2.76,0-5.26.22-6.73-.66L32,21l-1.71-.85a5.9,5.9,0,0,1,2.58-3.26,6,6,0,0,0,2.71,8.6C37,26.12,37.75,26,42,26Z"/><path class="cls-5" d="M17.71,20.15,16,21l-1.27,6.34c-1.55.8-2.25.66-6.73.66a2,2,0,0,1,0-4H6a2,2,0,0,1,0-4H3a2,2,0,0,1,0-4h9A6,6,0,0,1,17.71,20.15Z"/><path class="cls-6" d="M8,18c-3.27,0-3.69.15-4.41-.59A2,2,0,0,1,3,16a2,2,0,0,0,0,4H6A2,2,0,0,1,8,18Z"/><path class="cls-6" d="M10,22H8a2,2,0,0,1-2-2c-2.49,0-2.95,4,.35,4H8A2,2,0,0,1,10,22Z"/><path class="cls-6" d="M15,25.91c-.32,1.56-.2,1.43-.6,1.58A6.06,6.06,0,0,1,12,28c-4.13,0-4.65.19-5.41-.59A2,2,0,0,1,8,24a2,2,0,0,0,.59,1.41c.82.84,1.7.59,5.41.59A5.3,5.3,0,0,0,15,25.91Z"/><path d="M24,6c9.37,0,9.37-6,0-6S14.63,6,24,6Zm4.91-3c-1.68,1.32-8.13,1.33-9.82,0C20.77,1.68,27.22,1.67,28.91,3Z"/><path d="M45,15H36a7,7,0,0,0-6.21,3.78l-1.4-.7a6,6,0,1,0-8.78,0l-1.4.7A7,7,0,0,0,12,15H3c-3.89,0-4.09,6,.18,6a3,3,0,0,0,2,3.89A3,3,0,0,0,8,29c4.17,0,4.42.05,5.41-.15-.65,3.27-1.08,2.43,3.41,4.68l-2.63,9.65c-1.86,6.48,21.46,6.43,19.62,0l-2.63-9.65c4.45-2.23,4.07-1.4,3.41-4.68,1,.2,1.1.15,5.41.15a3,3,0,0,0,2.78-4.11,3,3,0,0,0,2-3.89A3,3,0,1,0,45,15ZM24,10a4,4,0,1,1-4,4A4,4,0,0,1,24,10ZM12,27c-4.32,0-4.31.11-4.71-.31A1,1,0,0,1,8,25h2a1,1,0,0,0,0-2H6a1,1,0,0,1,0-2H8a1,1,0,0,0,0-2c-5.42,0-5.31.11-5.71-.31A1,1,0,0,1,3,17c8.38,0,11.58-.82,13.42,2.67-1.73.87-1.17,0-2.57,7A5.08,5.08,0,0,1,12,27Zm18.67,4.55L29,24.76a1,1,0,0,0-1.94.48c.25,1,4.47,17.87,5,18.76,0,.51-2.75,2-8,2s-8-1.49-8-2.07c.49-.87,4.7-17.7,4.95-18.69A1,1,0,0,0,19,24.76l-1.7,6.79-2.2-1.1,1.75-8.77,4.54-2.27a5.91,5.91,0,0,0,5.16,0l4.54,2.27,1.75,8.77Zm15-12.84c-.38.39-.23.29-5.69.29a1,1,0,0,0,0,2h2a1,1,0,0,1,0,2H38a1,1,0,0,0,0,2h2a1,1,0,0,1,.69,1.71c-.37.38-.32.29-4.69.29a5.08,5.08,0,0,1-1.85-.36c-1.39-7-.83-6.1-2.57-7A5,5,0,0,1,36,17h9A1,1,0,0,1,45.69,18.71Z"/></g></svg>