<svg xmlns="http://www.w3.org/2000/svg" viewBox="0 0 48 48"><defs><style>.cls-1{fill:#df8761;}.cls-2{fill:#fc6;}.cls-3{fill:#edebf2;}.cls-4{fill:#dad7e5;}.cls-5{fill:#db5669;}.cls-6{fill:#f29b75;}.cls-7{fill:#ffde76;}.cls-8{fill:#f26674;}</style></defs><title>Bible</title><g id="Bible"><polygon class="cls-1" points="41 8 41 28 34 35 11 35 11 1 34 1 41 8"/><path class="cls-2" d="M11,1V35H10a5,5,0,0,0-5,5V7A6,6,0,0,1,11,1Z"/><path class="cls-3" d="M41,35V45H19V40H13v5H10a5,5,0,1,1,0-10Z"/><path class="cls-4" d="M11.5,36.5H41V35H10a5,5,0,0,0-2.7,9.2A5,5,0,0,1,11.5,36.5Z"/><polygon class="cls-2" points="41 1 41 8 34 1 41 1"/><polygon class="cls-2" points="41 28 41 35 34 35 41 28"/><polygon class="cls-5" points="19 40 19 47 16 45 13 47 13 40 19 40"/><path class="cls-6" d="M41,8V28l-5,5A23,23,0,0,1,13,10V1H34Z"/><polygon class="cls-7" points="41 1 41 8 34 1 41 1"/><polygon class="cls-7" points="41 28 41 33 36 33 41 28"/><polygon class="cls-7" points="32 13 28 13 28 9 24 9 24 13 20 13 20 17 24 17 24 27 28 27 28 17 32 17 32 13"/><path class="cls-2" d="M26,23V17a2,2,0,0,0-2-2,2,2,0,0,1-2-2H20v4h4V27h4V25A2,2,0,0,1,26,23Z"/><path class="cls-8" d="M19,41v4a4,4,0,0,1-4-4Z"/><path d="M41,0H11A7,7,0,0,0,4,7V40a6,6,0,0,0,6,6h2v1a1,1,0,0,0,1.55.83L16,46.2c2.5,1.67,2.79,2,3.47,1.68S20,47.09,20,46H41a1,1,0,0,0,1-1V1A1,1,0,0,0,41,0ZM40,34H36.41L40,30.41ZM12,34V2H33.59L40,8.41V27.59L33.59,34ZM40,5.59,36.41,2H40ZM10,2.1V34c-1.08,0-1.24-.06-1.6.22A6,6,0,0,0,6,35.53V7A5,5,0,0,1,10,2.1Zm8,43c-2.29-1.53-1.73-1.51-4,0V41h4ZM40,44H20V41H36a1,1,0,0,0,0-2H11a1,1,0,0,0,0,2h1v3H10a4,4,0,0,1,0-8H40Z"/><path d="M32,12H29V9a1,1,0,0,0-1-1H24a1,1,0,0,0-1,1v3H20a1,1,0,0,0-1,1v4a1,1,0,0,0,1,1h3v9a1,1,0,0,0,1,1h4a1,1,0,0,0,1-1V18h3a1,1,0,0,0,1-1V13A1,1,0,0,0,32,12Zm-1,4H28a1,1,0,0,0-1,1v9H25V17a1,1,0,0,0-1-1H21V14h3a1,1,0,0,0,1-1V10h2v3a1,1,0,0,0,1,1h3Z"/></g></svg>