<svg xmlns="http://www.w3.org/2000/svg" viewBox="0 0 48 48"><defs><style>.cls-1{fill:#f26674;}.cls-2{fill:#db5669;}.cls-3{fill:#dad7e5;}.cls-4{fill:#edebf2;}.cls-5{fill:#a87e6b;}.cls-6{fill:#be927c;}.cls-7{fill:#374f68;}.cls-8{fill:#425b72;}</style></defs><title>Church</title><g id="Church"><path class="cls-1" d="M42,31v5c-5.14-3.13-1.73-1-18-11C8,34.81,11.32,32.76,6,36V31c14.51-8.86,10.31-6.29,18-11Z"/><path class="cls-2" d="M24,23C8,32.81,11.32,30.76,6,34v2c5.14-3.13,1.73-1,18-11,16,9.81,12.68,7.76,18,11V34C36.86,30.87,40.27,33,24,23Z"/><path class="cls-3" d="M38,33.56V47H10V33.56L24,25Z"/><path class="cls-4" d="M38,35.56V44H25.27A12.26,12.26,0,0,1,13.15,33.64L24,27Z"/><polygon class="cls-2" points="32 11 32 15 24 11 16 15 16 11 24 7 32 11"/><polygon class="cls-1" points="24 7 16 11 16 13 24 9 32 13 32 11 24 7"/><polygon class="cls-3" points="30 14 30 23.67 24 20 18 23.67 18 14 24 11 30 14"/><rect class="cls-5" x="21" y="39" width="6" height="8"/><path class="cls-6" d="M27,39v5a4,4,0,0,1-4-4V39Z"/><path class="cls-7" d="M26,32a2,2,0,1,1-2.82-1.82A2,2,0,0,1,26,32Z"/><path class="cls-8" d="M25.82,32.82a2,2,0,0,1-2.64-2.64A2,2,0,0,1,25.82,32.82Z"/><path class="cls-4" d="M30,16v4H27a7,7,0,0,1-6.74-5.13L24,13Z"/><path d="M24,29a3,3,0,1,0,3,3A3,3,0,0,0,24,29Zm0,4a1,1,0,0,1,0-2A1,1,0,0,1,24,33Z"/><path d="M47,46H39V35.34C41.72,37,41.62,37,42,37a1,1,0,0,0,1-1c0-5.35.16-5.46-.48-5.85C30,22.48,31,23.16,31,23V15.62c.61.3,1,.57,1.53.23S33,15.24,33,11c0-.84.13-.55-8-4.62V4h1a1,1,0,0,0,0-2H25V1a1,1,0,0,0-2,0V2H22a1,1,0,0,0,0,2h1V6.38l-7.45,3.73A1,1,0,0,0,15,11c0,4.32-.15,4.47.47,4.85s1,0,1.53-.23c0,8.71,0,7.2,0,7.47C4.35,30.84,5,30.22,5,31c0,5.32-.17,5.49.51,5.87s.9.05,3.49-1.53V46H1a1,1,0,0,0,0,2H47A1,1,0,0,0,47,46ZM17,11.62l7-3.5,7,3.5v1.76c-7-3.52-6.83-3.58-7.45-3.27L17,13.38Zm2,3,5-2.5,5,2.5v7.26l-4.48-2.73c-.7-.43-.76-.17-5.52,2.73ZM7,31.56,24,21.17,41,31.56v2.66C23.22,23.35,24.22,23.69,23.48,24.15L7,34.22ZM22,46V40h4v6Zm6,0V39a1,1,0,0,0-1-1H21a1,1,0,0,0-1,1v7H11V34.12l13-7.95,13,7.95V46Z"/></g></svg>