<svg xmlns="http://www.w3.org/2000/svg" viewBox="0 0 48 48"><defs><style>.cls-1{fill:#ffdec7;}.cls-2{fill:#f6ccaf;}.cls-3{fill:#82bcf4;}.cls-4{fill:#6fabe6;}</style></defs><title>Cross Sign with Arms</title><g id="Cross_sign_with_open_arms" data-name="Cross sign with open arms"><path class="cls-1" d="M47,22c0,18,1.15,14.35-6.3,25H29c0-3.66-.36-6.64,2.64-9.64,5.69-5.69,5.8-6.18,7.36-6.18A2.84,2.84,0,0,1,41,32V22a3,3,0,0,1,6,0Z"/><path class="cls-2" d="M34.27,45A3.27,3.27,0,0,1,31,41.73a9,9,0,0,1,2.64-6.37C29.47,39.53,29,39.68,29,47H40.7l1.4-2Z"/><path class="cls-1" d="M19,47H7.3C-.14,36.36,1,40,1,22a3,3,0,0,1,6,0V32a2.86,2.86,0,0,1,4,0C18.65,39.65,19,38.89,19,47Z"/><path class="cls-2" d="M16.82,45A14.44,14.44,0,0,1,5,38.84C2.36,35.1,3,32.42,3,20a3,3,0,0,1,.14-.86A3,3,0,0,0,1,22C1,40-.15,36.35,7.3,47H19V45Z"/><polygon class="cls-3" points="33 7 27 7 27 1 21 1 21 7 15 7 15 13 21 13 21 31 27 31 27 13 33 13 33 7"/><path class="cls-4" d="M23,25V13a2,2,0,0,0-2-2,4,4,0,0,1-4-4H15v6h6V31h6V29A4,4,0,0,1,23,25Z"/><rect class="cls-2" x="29" y="47" width="12" height="1"/><rect class="cls-2" x="7" y="47" width="12" height="1"/><path d="M46.83,19.17A4,4,0,0,0,40,22v8.36a3.91,3.91,0,0,0-3.71.93C28.24,39.35,28,38.73,28,47a1,1,0,0,0,1,1c2.46,0-1-5.62,3.35-9.93l5.36-5.36a1.89,1.89,0,0,1,2.58,0,1.82,1.82,0,0,1,0,2.58l-4,4a1,1,0,0,0,1.42,1.42l4-4A3.83,3.83,0,0,0,42,31.65V22a2,2,0,0,1,4,0c0,18,1.15,14-6.12,24.43a1,1,0,0,0,1.64,1.14c4.24-6.06,6.48-8.34,6.48-13C48,21.12,48.39,20.74,46.83,19.17Z"/><path d="M11.71,31.29A3.91,3.91,0,0,0,8,30.36V22a4,4,0,0,0-8,0C0,40.31-1.12,36.71,6.48,47.57a1,1,0,0,0,1.64-1.14C.79,36,2,39.85,2,22a2,2,0,0,1,3.41-1.41c.8.79.59.54.59,11.06a3.83,3.83,0,0,0,.29,5.06l4,4a1,1,0,0,0,1.42-1.42l-4-4a1.81,1.81,0,0,1,0-2.58,1.9,1.9,0,0,1,2.58,0C18.13,40.54,18,39.57,18,47a1,1,0,0,0,2,0C20,38.5,19.65,39.23,11.71,31.29Z"/><path d="M28,14h5a1,1,0,0,0,1-1V7a1,1,0,0,0-1-1H28V1a1,1,0,0,0-1-1H21a1,1,0,0,0-1,1V6H15a1,1,0,0,0-1,1v6a1,1,0,0,0,1,1h5V31a1,1,0,0,0,1,1h6a1,1,0,0,0,1-1Zm-1-2a1,1,0,0,0-1,1V30H22V13a1,1,0,0,0-1-1H16V8h5a1,1,0,0,0,1-1V2h4V7a1,1,0,0,0,1,1h5v4Z"/></g></svg>