<svg xmlns="http://www.w3.org/2000/svg" viewBox="0 0 48 48"><defs><style>.cls-1{fill:#a87e6b;}.cls-2{fill:#ffdec7;}.cls-3{fill:#f6ccaf;}.cls-4{fill:#db5669;}.cls-5{fill:#f26674;}.cls-6{fill:#be927c;}.cls-7{fill:#fc6;}.cls-8{fill:#ffde76;}.cls-9{fill:#a07765;}</style></defs><title>Jesus</title><g id="Jesus"><path class="cls-1" d="M31,15c0,3.74.45,6.45-2.05,9A7,7,0,0,1,17,19V15a7,7,0,1,0,14,0Z"/><path class="cls-2" d="M31,8v7a7,7,0,0,1-14,0V8h5a3,3,0,0,0,3-3,3,3,0,0,0,.88,2.12C27,8.27,28.24,8,31,8Z"/><path class="cls-3" d="M22,9a3,3,0,0,0,3-3,3,3,0,0,0,.88,2.12C27,9.27,28.24,9,31,9V8H28a3,3,0,0,1-3-3,3,3,0,0,1-3,3H17c0,6.6-.58,9.32,2.05,12a7,7,0,0,0,10.8-1.1,7,7,0,0,1-8.8-.9C18.56,15.46,19,12.85,19,9Z"/><path class="cls-4" d="M45,35.54V47H14l22-18.21,5.52,2.6C42.88,32,45,32.78,45,35.54Z"/><path class="cls-5" d="M45,45H16.42L36.05,28.79l4.54,2.14C45.87,33.41,45,32.63,45,45Z"/><path class="cls-3" d="M36.05,28.79,14,47H3V35.54a4,4,0,0,1,2.3-3.62C21.42,24.32,20,25.15,20,24.74a7,7,0,0,0,8,0C28,25.17,27.25,24.6,36.05,28.79Z"/><path class="cls-2" d="M34.51,28.06C14.07,44.94,17.32,42.25,14.27,44.78A10.43,10.43,0,0,1,6,34.58v-3l12-5.66a7,7,0,0,0,10.52-.67Z"/><path class="cls-6" d="M35,8V28.29L28,25c0-.51-.1,0,.95-1.05A7,7,0,0,0,31,19V8c-2.79,0-4,.25-5.12-.88A3,3,0,0,1,25,5a3,3,0,0,1-3,3H17V19a7,7,0,0,0,3,5.74c0,.38.78-.1-7,3.55V8a7,7,0,0,1,7-7c8,0,10-.48,12.48,1.62A7,7,0,0,1,35,8Z"/><path class="cls-1" d="M15,8a7,7,0,0,1,7-7c-2.39,0-4.31-.19-6.48,1.62A7,7,0,0,0,13,8V28.29l2-.94Z"/><path class="cls-7" d="M15.52,2.62A7,7,0,0,0,13,8V28.29C5.08,32,4.08,32.11,3.3,34A23,23,0,0,1,15.52,2.62Z"/><path class="cls-7" d="M44.7,34c-.81-2-1.89-2-9.7-5.73V8a7,7,0,0,0-2.52-5.38A23,23,0,0,1,44.7,34Z"/><path class="cls-8" d="M13.91,3.32A7,7,0,0,0,11,9V27.23L5.72,29.72A23,23,0,0,1,9.33,6.29,23.2,23.2,0,0,1,13.91,3.32Z"/><path class="cls-8" d="M44.7,34c-.81-2-1.89-2-9.7-5.73V8a7,7,0,0,0-2.52-5.38A23,23,0,0,1,44.7,34Z"/><path class="cls-1" d="M29.88,18.79c-1.3-6.36-10.46-6.36-11.76,0A6.91,6.91,0,0,1,17,15v4A7,7,0,0,0,29,24C31.44,21.46,31,18.85,31,15A6.91,6.91,0,0,1,29.88,18.79Zm-9.8,2a4,4,0,1,1,7.84,0A7,7,0,0,1,20.08,20.8Z"/><path class="cls-9" d="M18,18.66A6.89,6.89,0,0,1,17,15c0,3.91-.52,7.3,3,9.74a7,7,0,0,0,9.43-1.32A7,7,0,0,1,18,18.66Z"/><rect class="cls-3" x="3" y="47" width="11" height="1"/><rect class="cls-4" x="14" y="47" width="31" height="1"/><path d="M9,45v2a1,1,0,0,0,2,0V45A1,1,0,0,0,9,45Z"/><path d="M35.38,42.22l-5,4a1,1,0,0,0,1.25,1.56l5-4A1,1,0,0,0,35.38,42.22Z"/><path d="M33,1.75A8,8,0,0,0,28,0C19.88,0,17.77-.45,15,1.75A23.94,23.94,0,0,0,2.23,34.07C1.92,35.07,2,34.44,2,47a1,1,0,0,0,2,0V35.54a3,3,0,0,1,1.72-2.72L20.17,26a8,8,0,0,0,7.66,0l6.49,3.06-21,17.15a1,1,0,0,0,1.26,1.54L36.33,30l3.46,1.63-8.46,7.61a1,1,0,0,0,1.34,1.48l9.08-8.17.53.25A3,3,0,0,1,44,35.54V47a1,1,0,0,0,2,0c0-12.62.08-11.94-.23-12.93A24,24,0,0,0,33,1.75ZM3.51,32a21.93,21.93,0,0,1,9-26.73C11.82,7.09,12,6,12,27.66,4.31,31.28,4.35,31.15,3.51,32ZM18.19,20.49a8,8,0,0,0,11.62,0A6,6,0,0,1,18.19,20.49ZM25,7.64C26.41,9.24,28,9,30,9c0,6.61.14,7-.55,8.5a6,6,0,0,0-10.9,0C17.87,16,18,15.7,18,9,21.92,9,23.49,9.35,25,7.64Zm2.94,11.87a6,6,0,0,1-7.88,0,4,4,0,0,1,7.88,0ZM32,19V8a1,1,0,0,0-1-1H28a2,2,0,0,1-2-2,1,1,0,0,0-2,0,2,2,0,0,1-2,2H17a1,1,0,0,0-1,1c0,10.65-.71,13.61,2.36,16.67l-4.36,2V8a6,6,0,0,1,2.16-4.61C18.37,1.54,20.13,2,28,2a6,6,0,0,1,6,6V26.72l-4.36-2A8,8,0,0,0,32,19Zm4,8.66c0-21.77.17-20.6-.49-22.41a21.94,21.94,0,0,1,9,26.73C43.59,31.09,43.51,31.19,36,27.66Z"/></g></svg>