<svg xmlns="http://www.w3.org/2000/svg" viewBox="0 0 48 48"><defs><style>.cls-1{fill:#ffdec7;}.cls-2{fill:#f6ccaf;}.cls-3{fill:#6fabe6;}.cls-4{fill:#82bcf4;}</style></defs><title>PRay</title><g id="Pray"><path class="cls-1" d="M24,23.5c0,13.09,1.12,10.38-8,19.5L9.5,36.5,12,34c0-11.33-.53-8.78,5.92-23.53a2.78,2.78,0,0,1,5.16,2.06l-2.47,7.59C20,22.17,20,21,21.5,21A2.49,2.49,0,0,1,24,23.5Z"/><path class="cls-2" d="M23,21.51c0,6.85.62,9.87-2.34,12.83L19.5,35.5a6.36,6.36,0,0,1-9,0l-1,1L16,43c5.46-5.46,8-7.1,8-11.31C24,23.29,24.34,22.51,23,21.51Z"/><polygon class="cls-3" points="18 45 16 47 1 47 1 42 8 35 18 45"/><path class="cls-4" d="M18,45H8a5,5,0,0,1-5-5c0-.1-.62.62,5-5Z"/><path class="cls-1" d="M24,23.5c0,13.09-1.12,10.38,8,19.5l6.5-6.5L36,34c0-11.33.53-8.78-5.92-23.53a2.78,2.78,0,0,0-5.16,2.06l2.47,7.59c.66,2.05.58.88-.89.88A2.49,2.49,0,0,0,24,23.5Z"/><path class="cls-2" d="M25,21.51c0,6.85-.62,9.87,2.34,12.83L28.5,35.5a6.36,6.36,0,0,0,9,0l1,1L32,43c-5.46-5.46-8-7.1-8-11.31C24,23.29,23.66,22.51,25,21.51Z"/><polygon class="cls-3" points="30 45 32 47 47 47 47 42 40 35 30 45"/><path class="cls-4" d="M30,45H40a5,5,0,0,0,5-5c0-.1.62.62-5-5Z"/><polygon class="cls-3" points="1 42 1 47 16 47 16 48 0 48 0 42 1 42"/><polygon class="cls-3" points="32 47 47 47 47 42 48 42 48 48 32 48 32 47"/><path d="M47.71,41.29l-7-7a1,1,0,0,0-1.42,0l-.79.8L37,33.59c0-11.06.43-8.82-6-23.52a3.78,3.78,0,0,0-7,.19,3.78,3.78,0,0,0-7-.19c-6.34,14.5-6,12.29-6,23.52l-1.5,1.5-.79-.8a1,1,0,0,0-1.42,0l-7,7a1,1,0,0,0,1.42,1.42L8,36.41,16.59,45l-1.3,1.29a1,1,0,0,0,1.42,1.42l2-2a1,1,0,0,0,0-1.42c-1.75-1.74-1.39-1.19-1-1.58,4.74-4.75,5.43-5.24,6.29-6.9.86,1.67,1.42,2,6.29,6.9.39.39.75-.16-1,1.58a1,1,0,0,0,0,1.42l2,2a1,1,0,0,0,1.42-1.42L31.41,45,40,36.41l6.29,6.3A1,1,0,0,0,47.71,41.29ZM24,12.93C26.87,20.82,26.6,20,26.5,20A3.5,3.5,0,0,0,24,21.06,3.5,3.5,0,0,0,21.5,20C21.39,20,21.21,20.61,24,12.93ZM21,36.64c-5,5-4.77,4.71-4.88,5L10.91,36.5l1.8-1.79c.41-.41.29-.39.29-6.53,0-4.79,1.09-6.46,5.84-17.31a1.78,1.78,0,0,1,3.3,1.32C18.78,21.43,19,20.76,19,21.06c-1.35,1.37-1,2.64-1,7.94a1,1,0,0,0,2,0V23.5a1.5,1.5,0,0,1,3,0C23,31.73,23.55,34,21,36.64Zm10.76,4.65C24,33.55,25,36.06,25,23.5a1.5,1.5,0,0,1,3,0V29a1,1,0,0,0,2,0c0-5.26.33-6.58-1-7.94,0-.3.23.4-3.14-8.87a1.78,1.78,0,0,1,3.3-1.32C33.66,21.14,35,23.18,35,28.18c0,6.19-.11,6.12.29,6.53l1.8,1.79-5.16,5.15A1.13,1.13,0,0,0,31.71,41.29Z"/><path d="M25,5V1a1,1,0,0,0-2,0V5A1,1,0,0,0,25,5Z"/><path d="M4.8,13.87C8.59,16.05,8.41,16,8.77,16a1,1,0,0,0,.5-1.87l-3.47-2A1,1,0,0,0,4.8,13.87Z"/><path d="M13.17,7.55a1,1,0,0,0,1.66-1.1l-2-3a1,1,0,0,0-1.66,1.1Z"/><path d="M4,25H8a1,1,0,0,0,0-2H4A1,1,0,0,0,4,25Z"/><path d="M39.23,16c.36,0,.17.06,4-2.13a1,1,0,0,0-1-1.73l-3.47,2A1,1,0,0,0,39.23,16Z"/><path d="M34,8c.71,0,.72-.28,2.83-3.45a1,1,0,0,0-1.66-1.1l-2,3A1,1,0,0,0,34,8Z"/><path d="M40,25h4a1,1,0,0,0,0-2H40A1,1,0,0,0,40,25Z"/></g></svg>