<svg xmlns="http://www.w3.org/2000/svg" viewBox="0 0 48 48"><defs><style>.cls-1{fill:#edb996;}.cls-2{fill:#f6ccaf;}.cls-3{fill:#c6c3d8;}.cls-4{fill:#dad7e5;}.cls-5{fill:#f29b75;}.cls-6{fill:#df8761;}.cls-7{fill:#fc6;}.cls-8{fill:#ffde76;}.cls-9{fill:#ffba55;}.cls-10{fill:#db5669;}.cls-11{fill:#f26674;}</style></defs><title>Last Supper</title><g id="Last_Supper" data-name="Last Supper"><path class="cls-1" d="M47,39a4.11,4.11,0,0,1-4.18,4H5.18C-1.11,43-2,31.82,15,28,29.9,24.66,47,30.27,47,39Z"/><path class="cls-2" d="M47,39a3.7,3.7,0,0,1-.53,2c-.52.07,2,0-38.29,0-4.69,0-6.11-5.87-.67-10.36,9-4.75,22.69-4.7,31.45-.75C39.06,30,47,33.06,47,39Z"/><path class="cls-3" d="M47,45a2,2,0,0,1-2,2H3a2,2,0,0,1,0-4H45A2,2,0,0,1,47,45Z"/><path class="cls-4" d="M47,45H6a2,2,0,0,1-2-2H45A2,2,0,0,1,47,45Z"/><path class="cls-5" d="M27,27.1c0,3.26-3,5.9-3,5.9s-3-2.64-3-5.9A44.49,44.49,0,0,1,27,27.1Z"/><path class="cls-6" d="M24,27c-1.46,0,.59,0,2,.1a8.69,8.69,0,0,1-2.5,5.4c.3.32.5.5.5.5s3-2.64,3-5.9C26,27,25,27,24,27Z"/><path class="cls-5" d="M39,29.89C38.75,32.78,36,35,36,35s-3-2.69-3-6c0-.36,0-.71,0-1A31.51,31.51,0,0,1,39,29.89Z"/><path class="cls-6" d="M37.89,29.44A8.71,8.71,0,0,1,35,34a9.19,9.19,0,0,0,1,1s2.75-2.22,3-5.11C38.61,29.73,38.25,29.59,37.89,29.44Z"/><path class="cls-5" d="M15,29c0,3.31-3,6-3,6s-2.75-2.22-3-5.11A31.51,31.51,0,0,1,15,28C15,28.29,15,28.64,15,29Z"/><path class="cls-6" d="M15,28l-1,.25a8,8,0,0,1-2.48,6.31c.31.31.52.48.52.48s3-2.69,3-6C15,28.64,15,28.29,15,28Z"/><path class="cls-7" d="M47,1V11a10,10,0,0,1-20,0V1Z"/><path class="cls-8" d="M47,1V11a10,10,0,0,1-3,7.18c-.82.35-.54.29-.83-.07-2-3.2-6.82-4-10.15-2A10,10,0,0,1,30,9V1Z"/><path class="cls-9" d="M39,20.8c0,9.37.06,9.19,0,9.09a28.29,28.29,0,0,0-4-1.43V20.8A10,10,0,0,0,39,20.8Z"/><path class="cls-7" d="M39,20.8v7.3a2.94,2.94,0,0,1-2-2.77V21A10,10,0,0,0,39,20.8Z"/><path class="cls-10" d="M31,8a2,2,0,1,1-2.82-1.82A2,2,0,0,1,31,8Z"/><path class="cls-11" d="M30.82,8.82a2,2,0,0,1-2.64-2.64A2,2,0,0,1,30.82,8.82Z"/><path class="cls-10" d="M39,8a2,2,0,1,1-2.82-1.82A2,2,0,0,1,39,8Z"/><path class="cls-11" d="M38.82,8.82a2,2,0,0,1-2.64-2.64A2,2,0,0,1,38.82,8.82Z"/><path class="cls-10" d="M47,8a2,2,0,1,1-2.82-1.82A2,2,0,0,1,47,8Z"/><path class="cls-11" d="M46.82,8.82a2,2,0,0,1-2.64-2.64A2,2,0,0,1,46.82,8.82Z"/><path class="cls-9" d="M43.44,18.65a10,10,0,0,1-12.88,0C33.11,13.55,41.48,14.09,43.44,18.65Z"/><path class="cls-7" d="M43.32,18.43A9.94,9.94,0,0,1,33,16.1C36.49,14,41.48,15.07,43.32,18.43Z"/><path d="M47,0H27a1,1,0,0,0-1,1V11a11,11,0,0,0,8,10.57v5.6A43.34,43.34,0,0,0,20.93,26.1C2.27,27.42-2.94,38,1.44,42.45A3,3,0,0,0,3,48H45a3,3,0,0,0,1.56-5.55A4.86,4.86,0,0,0,48,39c0-3.76-2.91-7.28-8-9.72V21.57A11,11,0,0,0,48,11V1A1,1,0,0,0,47,0ZM31.88,18.4c2.33-3.2,7.9-3.2,10.24,0A9,9,0,0,1,31.88,18.4Zm6,12.11A7.37,7.37,0,0,1,36,33.59a7.67,7.67,0,0,1-2-4.36A29.81,29.81,0,0,1,37.85,30.51ZM25.89,28A8.31,8.31,0,0,1,24,31.56,8.25,8.25,0,0,1,22.11,28C23.54,28,24.57,28,25.89,28ZM14,29.23a7.8,7.8,0,0,1-2,4.36,7.37,7.37,0,0,1-1.82-3.08A27.45,27.45,0,0,1,14,29.23ZM45,46H3a1,1,0,0,1,0-2H45A1,1,0,0,1,45,46Zm1-7c1.33,0,1.33,0,0,0a3.13,3.13,0,0,1-3.18,3H5.18C1.07,42-.14,35.69,8.31,31.35a10.34,10.34,0,0,0,3.06,4.43,1,1,0,0,0,1.3,0,9.76,9.76,0,0,0,3.32-7,40.44,40.44,0,0,1,4.12-.59,10.85,10.85,0,0,0,3.23,5.55,1,1,0,0,0,1.32,0,10.85,10.85,0,0,0,3.23-5.55,40.44,40.44,0,0,1,4.12.59,9.78,9.78,0,0,0,3.32,7,1,1,0,0,0,1.3,0,10.34,10.34,0,0,0,3.06-4.43C43.71,33.42,46,36.16,46,39ZM38,22v6.41c-.64-.25-1.31-.47-2-.69V22Zm5.61-4.92a8.64,8.64,0,0,0-13.22,0A8.91,8.91,0,0,1,28,10.82a3,3,0,1,0,0-5.64V2H46V5.18A3,3,0,1,0,45,11c1.09,0,1-.43,1,0A8.92,8.92,0,0,1,43.61,17.08ZM28,8a1,1,0,0,1,2,0A1,1,0,0,1,28,8ZM46,8a1,1,0,0,1-2,0A1,1,0,0,1,46,8Z"/><path d="M37,5a3,3,0,1,0,3,3A3,3,0,0,0,37,5Zm0,4a1,1,0,0,1,0-2A1,1,0,0,1,37,9Z"/><path d="M12.11,14.55a1,1,0,0,0,1.78.9l.37-.74a3,3,0,0,0-.55-3.42c-.58-.57-.16-1.16.18-1.84a1,1,0,0,0-1.78-.9l-.37.74a3,3,0,0,0,.55,3.42C12.87,13.28,12.45,13.87,12.11,14.55Z"/><path d="M5.11,24.55a1,1,0,0,0,1.78.9l.37-.74a3,3,0,0,0-.55-3.42c-.58-.57-.16-1.16.18-1.84a1,1,0,0,0-1.78-.9l-.37.74a3,3,0,0,0,.55,3.42C5.87,23.28,5.45,23.87,5.11,24.55Z"/><path d="M21.11,19.55a1,1,0,0,0,1.78.9l.37-.74a3,3,0,0,0-.55-3.42c-.58-.57-.16-1.16.18-1.84a1,1,0,0,0-1.78-.9l-.37.74a3,3,0,0,0,.55,3.42C21.87,18.28,21.45,18.87,21.11,19.55Z"/></g></svg>